<svg width="20" height="20" viewBox="0 0 20 20" fill="none" xmlns="http://www.w3.org/2000/svg">
<path fill-rule="evenodd" clip-rule="evenodd" d="M1.32029 1.79865C1.17122 1.81426 1.0245 1.8525 0.885732 1.91366C0.700727 1.99523 0.532367 2.11534 0.393062 2.26765C0.253718 2.42002 0.146205 2.60137 0.0790709 2.80028C0.01193 2.99926 -0.0128008 3.21099 0.00621111 3.42099C0.295428 6.13084 1.18006 8.74005 2.59273 11.0637L2.88244 11.5245L2.88417 11.5278C4.23167 13.6445 6.00019 15.4573 8.07629 16.8557L8.49611 17.1297L8.49958 17.1322C10.9255 18.7025 13.6845 19.682 16.5549 19.9943C16.7541 20.012 16.9551 19.9885 17.1456 19.9242C17.337 19.8596 17.5149 19.755 17.6669 19.6159C17.8189 19.4767 17.9417 19.3057 18.026 19.1134C18.1103 18.921 18.1544 18.7116 18.1535 18.5V15.6216C18.1627 15.2485 18.0337 14.8883 17.797 14.6094C17.5615 14.332 17.2373 14.1554 16.8889 14.1053L16.5315 14.0531C15.7007 13.9197 14.8851 13.7048 14.0968 13.4112L14.0959 13.4103C13.8362 13.3129 13.5548 13.2925 13.2849 13.35C13.0148 13.4075 12.7632 13.5416 12.5615 13.7407L11.3472 14.9528C11.2037 15.0959 10.9737 15.1253 10.7947 15.0237C8.32725 13.6232 6.2872 11.5863 4.88781 9.12978C4.79769 8.97157 4.82549 8.77674 4.95634 8.64609L6.1724 7.43239C6.37134 7.23093 6.51095 6.97388 6.57139 6.69096C6.63196 6.40735 6.60985 6.11232 6.50808 5.84186L6.50721 5.84105C6.17252 4.94574 5.94018 4.01549 5.81504 3.06863C5.76254 2.70496 5.5807 2.37666 5.30936 2.14367C5.03762 1.91041 4.69469 1.78707 4.3457 1.79049H1.46948L1.32029 1.79865Z" fill="white"/>
<path d="M12.0341 3.83127C13.0612 4.03129 14.0017 4.53147 14.736 5.26438C15.4701 5.99707 15.9654 6.92947 16.1629 7.93973C16.207 8.16647 16.0475 8.38419 15.8064 8.42586C15.776 8.43111 15.7458 8.43217 15.7162 8.43157C15.5095 8.4279 15.3275 8.28914 15.2885 8.09063C15.1211 7.23405 14.7014 6.45006 14.0881 5.83778C13.475 5.22577 12.696 4.81276 11.8529 4.64856C11.6129 4.60163 11.4588 4.38082 11.5085 4.15508C11.5521 3.95756 11.7374 3.82178 11.9439 3.8223C11.9737 3.8223 12.0039 3.82538 12.0341 3.83127Z" fill="white"/>
<path d="M11.996 0.00257418C14.0458 0.229875 15.9526 1.14607 17.4049 2.59392C18.8567 4.04129 19.7694 5.93469 19.9975 7.96176C20.0231 8.19086 19.8465 8.39654 19.6029 8.42097H19.5118C19.3061 8.40241 19.1354 8.24983 19.1128 8.04903C18.9044 6.19817 18.0722 4.47681 16.7579 3.16651C15.4439 1.85663 13.7269 1.03568 11.891 0.832097C11.6475 0.805008 11.4737 0.596991 11.5024 0.367989C11.5278 0.167636 11.6999 0.017959 11.9058 0.00175852C11.9353 -0.000630742 11.9654 -0.000794989 11.996 0.00257418Z" fill="white"/>
</svg>
