<svg width="800" height="800" viewBox="0 0 800 800" fill="none" xmlns="http://www.w3.org/2000/svg">
<path d="M245.715 400C292.975 400 331.429 361.547 331.429 314.286C331.429 267.026 292.975 228.572 245.715 228.572C198.454 228.572 160 267.026 160 314.286C160 361.547 198.454 400 245.715 400ZM622.857 262.858H382.857C373.386 262.858 365.714 270.529 365.714 280V434.286H125.714V211.429C125.714 201.958 118.043 194.286 108.572 194.286H74.2859C64.8145 194.286 57.1431 201.958 57.1431 211.429V588.572C57.1431 598.043 64.8145 605.715 74.2859 605.715H108.572C118.043 605.715 125.714 598.043 125.714 588.572V537.143H674.286V588.572C674.286 598.043 681.957 605.715 691.429 605.715H725.714C735.186 605.715 742.857 598.043 742.857 588.572V382.858C742.857 316.579 689.136 262.858 622.857 262.858Z" fill="white"/>
</svg>
