<svg width="15.75rem" height="6.3125rem" viewBox="0 0 252 101" fill="none" xmlns="http://www.w3.org/2000/svg">
<g clip-path="url(#clip0_10044_2303)">
<path fill-rule="evenodd" clip-rule="evenodd" d="M35.9608 8C21.0893 8 9 20.0805 9 34.9363C9 42.3421 12.2944 49.2017 19.0703 55.9136C28.9092 65.6715 33.4987 74.6814 33.4987 84.272V86.7324H38.423V84.272C38.423 74.7257 42.9485 65.9766 53.0976 55.9185C59.8735 49.2017 63.1679 42.3421 63.1679 34.9363C63.1679 20.0805 51.0786 8 35.9608 8Z" fill="#8895FE"/>
<g filter="url(#filter0_d_10044_2303)">
<rect x="4" y="4" width="64" height="64" rx="32" fill="#8895FE"/>
</g>
<rect x="29" y="80.5" width="14" height="14" rx="7" fill="#8895FE" stroke="white" stroke-width="5"/>
<path d="M28.9904 35.6324C31.2502 35.6324 33.0889 33.7936 33.0889 31.5338C33.0889 29.274 31.2502 27.4353 28.9904 27.4353C26.7306 27.4353 24.8919 29.274 24.8919 31.5338C24.8919 33.7936 26.7306 35.6324 28.9904 35.6324ZM47.0239 29.0747H35.548C35.0951 29.0747 34.7283 29.4415 34.7283 29.8944V37.2718H23.2525V26.6156C23.2525 26.1627 22.8856 25.7959 22.4327 25.7959H20.7933C20.3405 25.7959 19.9736 26.1627 19.9736 26.6156V44.6491C19.9736 45.102 20.3405 45.4688 20.7933 45.4688H22.4327C22.8856 45.4688 23.2525 45.102 23.2525 44.6491V42.19H49.483V44.6491C49.483 45.102 49.8498 45.4688 50.3027 45.4688H51.9421C52.395 45.4688 52.7618 45.102 52.7618 44.6491V34.8126C52.7618 31.6435 50.1931 29.0747 47.0239 29.0747Z" fill="white"/>
<rect x="78" y="14" width="168" height="48" rx="6" fill="#FEFEFE"/>
<path d="M89.088 22.576C90.56 22.576 91.632 22.896 92.304 23.536C92.9867 24.1653 93.328 25.0347 93.328 26.144C93.328 26.6453 93.2533 27.1253 93.104 27.584C92.9547 28.032 92.704 28.4373 92.352 28.8C92.0107 29.152 91.5573 29.4293 90.992 29.632C90.4267 29.8347 89.728 29.936 88.896 29.936H87.856V34H85.44V22.576H89.088ZM88.96 24.56H87.856V27.952H88.656C89.1147 27.952 89.5093 27.8933 89.84 27.776C90.1707 27.6587 90.4267 27.472 90.608 27.216C90.7893 26.96 90.88 26.6293 90.88 26.224C90.88 25.6587 90.7253 25.2427 90.416 24.976C90.1067 24.6987 89.6213 24.56 88.96 24.56ZM99.0549 25.104C99.8655 25.104 100.559 25.2587 101.135 25.568C101.722 25.8773 102.175 26.3253 102.495 26.912C102.815 27.4987 102.975 28.2187 102.975 29.072V30.224H97.3429C97.3642 30.896 97.5615 31.424 97.9349 31.808C98.3189 32.192 98.8469 32.384 99.5189 32.384C100.084 32.384 100.596 32.3307 101.055 32.224C101.514 32.1067 101.988 31.9307 102.479 31.696V33.536C102.052 33.7493 101.599 33.904 101.119 34C100.65 34.1067 100.079 34.16 99.4069 34.16C98.5322 34.16 97.7589 34 97.0869 33.68C96.4149 33.3493 95.8869 32.8533 95.5029 32.192C95.1189 31.5307 94.9269 30.6987 94.9269 29.696C94.9269 28.672 95.0975 27.824 95.4389 27.152C95.7909 26.4693 96.2762 25.9573 96.8949 25.616C97.5135 25.2747 98.2335 25.104 99.0549 25.104ZM99.0709 26.8C98.6122 26.8 98.2282 26.9493 97.9189 27.248C97.6202 27.5467 97.4442 28.0107 97.3909 28.64H100.735C100.735 28.288 100.671 27.9733 100.543 27.696C100.426 27.4187 100.244 27.2 99.9989 27.04C99.7535 26.88 99.4442 26.8 99.0709 26.8ZM108.252 25.104C108.881 25.104 109.468 25.1893 110.012 25.36C110.567 25.52 111.009 25.7707 111.34 26.112C111.681 26.4533 111.852 26.8907 111.852 27.424C111.852 27.9467 111.692 28.3627 111.372 28.672C111.063 28.9813 110.641 29.2053 110.108 29.344V29.424C110.481 29.5093 110.817 29.632 111.116 29.792C111.415 29.9413 111.649 30.1493 111.82 30.416C112.001 30.672 112.092 31.0187 112.092 31.456C112.092 31.936 111.937 32.384 111.628 32.8C111.329 33.2053 110.86 33.536 110.22 33.792C109.591 34.0373 108.78 34.16 107.788 34.16C107.319 34.16 106.876 34.1387 106.46 34.096C106.044 34.0533 105.665 33.9947 105.324 33.92C104.983 33.8347 104.684 33.7333 104.428 33.616V31.648C104.791 31.8187 105.233 31.9733 105.756 32.112C106.289 32.2507 106.855 32.32 107.452 32.32C107.889 32.32 108.279 32.288 108.62 32.224C108.972 32.16 109.249 32.0533 109.452 31.904C109.665 31.7547 109.772 31.5573 109.772 31.312C109.772 31.0773 109.681 30.8853 109.5 30.736C109.319 30.576 109.047 30.4587 108.684 30.384C108.321 30.3093 107.857 30.272 107.292 30.272H106.364V28.624H107.244C108.033 28.624 108.641 28.56 109.068 28.432C109.505 28.304 109.724 28.064 109.724 27.712C109.724 27.4347 109.585 27.2267 109.308 27.088C109.031 26.9387 108.577 26.864 107.948 26.864C107.532 26.864 107.079 26.912 106.588 27.008C106.097 27.104 105.633 27.2427 105.196 27.424L104.492 25.76C104.993 25.568 105.543 25.4133 106.14 25.296C106.737 25.168 107.441 25.104 108.252 25.104ZM116.407 28.72C116.407 28.9013 116.396 29.1253 116.375 29.392C116.364 29.6587 116.348 29.9307 116.327 30.208C116.316 30.4853 116.3 30.7307 116.279 30.944C116.258 31.1573 116.242 31.3067 116.231 31.392L120.263 25.264H123.127V34H120.823V30.512C120.823 30.224 120.834 29.9093 120.855 29.568C120.876 29.216 120.898 28.8907 120.919 28.592C120.951 28.2827 120.972 28.048 120.983 27.888L116.967 34H114.103V25.264H116.407V28.72ZM133.635 25.264V32.256H134.915V37.136H132.771V34H126.899V37.136H124.755V32.256H125.491C125.875 31.6693 126.2 31.0027 126.467 30.256C126.733 29.4987 126.947 28.6933 127.107 27.84C127.267 26.9867 127.384 26.128 127.459 25.264H133.635ZM129.459 27.056C129.373 27.696 129.267 28.32 129.139 28.928C129.011 29.5253 128.851 30.1013 128.659 30.656C128.477 31.2107 128.253 31.744 127.987 32.256H131.251V27.056H129.459ZM140.164 25.104C140.974 25.104 141.668 25.2587 142.244 25.568C142.83 25.8773 143.284 26.3253 143.604 26.912C143.924 27.4987 144.084 28.2187 144.084 29.072V30.224H138.452C138.473 30.896 138.67 31.424 139.044 31.808C139.428 32.192 139.956 32.384 140.628 32.384C141.193 32.384 141.705 32.3307 142.164 32.224C142.622 32.1067 143.097 31.9307 143.588 31.696V33.536C143.161 33.7493 142.708 33.904 142.228 34C141.758 34.1067 141.188 34.16 140.516 34.16C139.641 34.16 138.868 34 138.196 33.68C137.524 33.3493 136.996 32.8533 136.612 32.192C136.228 31.5307 136.036 30.6987 136.036 29.696C136.036 28.672 136.206 27.824 136.548 27.152C136.9 26.4693 137.385 25.9573 138.004 25.616C138.622 25.2747 139.342 25.104 140.164 25.104ZM140.18 26.8C139.721 26.8 139.337 26.9493 139.028 27.248C138.729 27.5467 138.553 28.0107 138.5 28.64H141.844C141.844 28.288 141.78 27.9733 141.652 27.696C141.534 27.4187 141.353 27.2 141.108 27.04C140.862 26.88 140.553 26.8 140.18 26.8ZM148.561 25.264V28.624H151.889V25.264H154.273V34H151.889V30.4H148.561V34H146.177V25.264H148.561ZM166.466 37.136H164.322V34H156.93V25.264H159.314V32.208H162.802V25.264H165.186V32.256H166.466V37.136ZM170.41 28.72C170.41 28.9013 170.399 29.1253 170.378 29.392C170.367 29.6587 170.351 29.9307 170.33 30.208C170.319 30.4853 170.303 30.7307 170.282 30.944C170.261 31.1573 170.245 31.3067 170.234 31.392L174.266 25.264H177.13V34H174.826V30.512C174.826 30.224 174.837 29.9093 174.858 29.568C174.879 29.216 174.901 28.8907 174.922 28.592C174.954 28.2827 174.975 28.048 174.986 27.888L170.97 34H168.106V25.264H170.41V28.72ZM181.11 34H178.534L180.886 30.544C180.587 30.416 180.304 30.2453 180.038 30.032C179.782 29.808 179.574 29.5253 179.414 29.184C179.254 28.8427 179.174 28.4373 179.174 27.968C179.174 27.0933 179.504 26.4267 180.166 25.968C180.827 25.4987 181.675 25.264 182.71 25.264H186.774V34H184.39V30.752H183.078L181.11 34ZM181.51 27.984C181.51 28.3467 181.654 28.6347 181.942 28.848C182.23 29.0507 182.603 29.152 183.062 29.152H184.39V26.944H182.758C182.331 26.944 182.016 27.0507 181.814 27.264C181.611 27.4667 181.51 27.7067 181.51 27.984ZM196.658 22.576C197.672 22.576 198.52 22.672 199.202 22.864C199.896 23.0453 200.413 23.3493 200.754 23.776C201.106 24.192 201.282 24.7573 201.282 25.472C201.282 25.8987 201.213 26.288 201.074 26.64C200.936 26.992 200.733 27.28 200.466 27.504C200.21 27.728 199.896 27.872 199.522 27.936V28.016C199.906 28.0907 200.253 28.224 200.562 28.416C200.872 28.608 201.117 28.8853 201.298 29.248C201.48 29.6107 201.57 30.0907 201.57 30.688C201.57 31.3813 201.4 31.9787 201.058 32.48C200.728 32.9707 200.248 33.3493 199.618 33.616C198.989 33.872 198.242 34 197.378 34H193.106V22.576H196.658ZM196.93 27.104C197.634 27.104 198.12 26.992 198.386 26.768C198.664 26.544 198.802 26.2187 198.802 25.792C198.802 25.3547 198.642 25.04 198.322 24.848C198.002 24.656 197.496 24.56 196.802 24.56H195.522V27.104H196.93ZM195.522 29.024V32H197.106C197.832 32 198.338 31.8613 198.626 31.584C198.914 31.296 199.058 30.9173 199.058 30.448C199.058 30.16 198.994 29.9093 198.866 29.696C198.749 29.4827 198.541 29.3173 198.242 29.2C197.944 29.0827 197.538 29.024 197.026 29.024H195.522ZM211.76 29.616C211.76 30.3413 211.659 30.9867 211.456 31.552C211.264 32.1173 210.982 32.5973 210.608 32.992C210.246 33.376 209.803 33.6693 209.28 33.872C208.758 34.064 208.166 34.16 207.504 34.16C206.896 34.16 206.331 34.064 205.808 33.872C205.296 33.6693 204.854 33.376 204.48 32.992C204.107 32.5973 203.814 32.1173 203.6 31.552C203.398 30.9867 203.296 30.3413 203.296 29.616C203.296 28.6453 203.467 27.8293 203.808 27.168C204.15 26.496 204.64 25.984 205.28 25.632C205.92 25.28 206.678 25.104 207.552 25.104C208.374 25.104 209.099 25.28 209.728 25.632C210.358 25.984 210.854 26.496 211.216 27.168C211.579 27.8293 211.76 28.6453 211.76 29.616ZM205.728 29.616C205.728 30.192 205.787 30.6773 205.904 31.072C206.032 31.456 206.23 31.7493 206.496 31.952C206.763 32.144 207.11 32.24 207.536 32.24C207.963 32.24 208.304 32.144 208.56 31.952C208.827 31.7493 209.019 31.456 209.136 31.072C209.264 30.6773 209.328 30.192 209.328 29.616C209.328 29.04 209.264 28.56 209.136 28.176C209.019 27.792 208.827 27.504 208.56 27.312C208.294 27.12 207.947 27.024 207.52 27.024C206.891 27.024 206.432 27.2427 206.144 27.68C205.867 28.1067 205.728 28.752 205.728 29.616ZM221.714 34H219.33V27.056H217.138C217.032 28.336 216.898 29.4293 216.738 30.336C216.589 31.232 216.397 31.9627 216.162 32.528C215.938 33.0933 215.65 33.5093 215.298 33.776C214.946 34.032 214.514 34.16 214.002 34.16C213.725 34.16 213.474 34.1387 213.25 34.096C213.026 34.0533 212.824 33.9893 212.642 33.904V32C212.76 32.0427 212.882 32.08 213.01 32.112C213.138 32.144 213.272 32.16 213.41 32.16C213.56 32.16 213.698 32.1013 213.826 31.984C213.965 31.8667 214.093 31.6587 214.21 31.36C214.338 31.0613 214.456 30.6507 214.562 30.128C214.669 29.6053 214.765 28.9493 214.85 28.16C214.946 27.36 215.032 26.3947 215.106 25.264H221.714V34ZM230.395 25.264V27.056H226.747V34H224.363V25.264H230.395ZM235.748 25.088C236.921 25.088 237.817 25.344 238.436 25.856C239.065 26.3573 239.38 27.1307 239.38 28.176V34H237.716L237.252 32.816H237.188C236.942 33.1253 236.686 33.3813 236.42 33.584C236.164 33.7867 235.865 33.9307 235.524 34.016C235.193 34.112 234.782 34.16 234.292 34.16C233.78 34.16 233.316 34.064 232.9 33.872C232.494 33.6693 232.174 33.3653 231.94 32.96C231.705 32.544 231.588 32.0213 231.588 31.392C231.588 30.464 231.913 29.7813 232.564 29.344C233.214 28.896 234.19 28.6507 235.492 28.608L237.012 28.56V28.176C237.012 27.7173 236.889 27.3813 236.644 27.168C236.409 26.9547 236.078 26.848 235.652 26.848C235.225 26.848 234.809 26.912 234.404 27.04C233.998 27.1573 233.593 27.3067 233.188 27.488L232.404 25.872C232.873 25.6267 233.39 25.4347 233.956 25.296C234.532 25.1573 235.129 25.088 235.748 25.088ZM236.084 29.984C235.316 30.0053 234.782 30.144 234.484 30.4C234.185 30.656 234.036 30.992 234.036 31.408C234.036 31.7707 234.142 32.032 234.356 32.192C234.569 32.3413 234.846 32.416 235.188 32.416C235.7 32.416 236.132 32.2667 236.484 31.968C236.836 31.6587 237.012 31.2267 237.012 30.672V29.952L236.084 29.984Z" fill="#1A1A1A"/>
<path d="M91.168 43.004V44.306H86.842V53H85.33V43.004H91.168ZM98.4598 49.22C98.4598 49.8453 98.3758 50.4007 98.2078 50.886C98.0398 51.3713 97.8018 51.782 97.4938 52.118C97.1858 52.454 96.8125 52.7107 96.3738 52.888C95.9351 53.056 95.4405 53.14 94.8898 53.14C94.3858 53.14 93.9191 53.056 93.4898 52.888C93.0605 52.7107 92.6871 52.454 92.3698 52.118C92.0618 51.782 91.8191 51.3713 91.6418 50.886C91.4645 50.4007 91.3758 49.8407 91.3758 49.206C91.3758 48.3753 91.5158 47.6707 91.7958 47.092C92.0851 46.5133 92.4958 46.0747 93.0278 45.776C93.5691 45.468 94.2038 45.314 94.9318 45.314C95.6225 45.314 96.2291 45.468 96.7518 45.776C97.2838 46.0747 97.6991 46.5133 97.9978 47.092C98.3058 47.6707 98.4598 48.38 98.4598 49.22ZM92.9018 49.22C92.9018 49.78 92.9718 50.2653 93.1118 50.676C93.2518 51.0773 93.4711 51.3853 93.7698 51.6C94.0685 51.8147 94.4511 51.922 94.9178 51.922C95.3845 51.922 95.7671 51.8147 96.0658 51.6C96.3645 51.3853 96.5838 51.0773 96.7238 50.676C96.8638 50.2653 96.9338 49.78 96.9338 49.22C96.9338 48.6413 96.8591 48.156 96.7098 47.764C96.5698 47.372 96.3505 47.0733 96.0518 46.868C95.7625 46.6533 95.3798 46.546 94.9038 46.546C94.2038 46.546 93.6951 46.7793 93.3778 47.246C93.0605 47.7127 92.9018 48.3707 92.9018 49.22ZM103.519 53.14C102.828 53.14 102.222 53.0047 101.699 52.734C101.176 52.4633 100.77 52.0433 100.481 51.474C100.192 50.8953 100.047 50.1627 100.047 49.276C100.047 48.3427 100.201 47.5867 100.509 47.008C100.826 46.4293 101.251 46.0047 101.783 45.734C102.324 45.454 102.94 45.314 103.631 45.314C104.051 45.314 104.443 45.3607 104.807 45.454C105.18 45.538 105.488 45.636 105.731 45.748L105.283 46.952C105.022 46.8493 104.742 46.7607 104.443 46.686C104.154 46.6113 103.878 46.574 103.617 46.574C103.15 46.574 102.763 46.6767 102.455 46.882C102.156 47.078 101.932 47.3767 101.783 47.778C101.643 48.17 101.573 48.6647 101.573 49.262C101.573 49.8313 101.648 50.312 101.797 50.704C101.946 51.096 102.166 51.3947 102.455 51.6C102.754 51.796 103.122 51.894 103.561 51.894C103.981 51.894 104.35 51.8473 104.667 51.754C104.984 51.6607 105.283 51.5393 105.563 51.39V52.678C105.292 52.8367 104.998 52.9533 104.681 53.028C104.364 53.1027 103.976 53.14 103.519 53.14ZM113 46.644H110.536V53H109.066V46.644H106.616V45.454H113V46.644ZM117.442 45.314C118.105 45.314 118.674 45.454 119.15 45.734C119.626 46.0047 119.99 46.3967 120.242 46.91C120.503 47.4233 120.634 48.03 120.634 48.73V49.542H115.566C115.585 50.3167 115.785 50.9093 116.168 51.32C116.56 51.7307 117.106 51.936 117.806 51.936C118.291 51.936 118.721 51.894 119.094 51.81C119.477 51.7167 119.869 51.5813 120.27 51.404V52.636C119.897 52.804 119.514 52.93 119.122 53.014C118.739 53.098 118.282 53.14 117.75 53.14C117.022 53.14 116.378 52.9953 115.818 52.706C115.258 52.4167 114.819 51.9873 114.502 51.418C114.194 50.8393 114.04 50.13 114.04 49.29C114.04 48.4407 114.18 47.722 114.46 47.134C114.749 46.546 115.146 46.098 115.65 45.79C116.163 45.4727 116.761 45.314 117.442 45.314ZM117.442 46.462C116.91 46.462 116.481 46.6347 116.154 46.98C115.837 47.3253 115.65 47.8153 115.594 48.45H119.15C119.15 48.058 119.089 47.7127 118.968 47.414C118.847 47.1153 118.66 46.882 118.408 46.714C118.156 46.546 117.834 46.462 117.442 46.462ZM128.884 47.372C128.884 47.8293 128.744 48.1933 128.464 48.464C128.193 48.7253 127.829 48.9027 127.372 48.996V49.052C127.857 49.1173 128.268 49.29 128.604 49.57C128.949 49.8407 129.122 50.242 129.122 50.774C129.122 51.1007 129.061 51.3993 128.94 51.67C128.818 51.9407 128.632 52.1787 128.38 52.384C128.128 52.58 127.801 52.734 127.4 52.846C127.008 52.9487 126.532 53 125.972 53H122.626V45.454H125.972C126.522 45.454 127.017 45.5147 127.456 45.636C127.894 45.7573 128.24 45.958 128.492 46.238C128.753 46.518 128.884 46.896 128.884 47.372ZM127.582 50.746C127.582 50.354 127.432 50.074 127.134 49.906C126.835 49.7287 126.392 49.64 125.804 49.64H124.11V51.88H125.832C126.382 51.88 126.812 51.796 127.12 51.628C127.428 51.4507 127.582 51.1567 127.582 50.746ZM127.372 47.54C127.372 47.2133 127.255 46.9753 127.022 46.826C126.788 46.6767 126.41 46.602 125.888 46.602H124.11V48.506H125.664C126.224 48.506 126.648 48.4313 126.938 48.282C127.227 48.1233 127.372 47.876 127.372 47.54ZM137.701 49.22C137.701 49.8453 137.617 50.4007 137.449 50.886C137.281 51.3713 137.043 51.782 136.735 52.118C136.427 52.454 136.053 52.7107 135.615 52.888C135.176 53.056 134.681 53.14 134.131 53.14C133.627 53.14 133.16 53.056 132.731 52.888C132.301 52.7107 131.928 52.454 131.611 52.118C131.303 51.782 131.06 51.3713 130.883 50.886C130.705 50.4007 130.617 49.8407 130.617 49.206C130.617 48.3753 130.757 47.6707 131.037 47.092C131.326 46.5133 131.737 46.0747 132.269 45.776C132.81 45.468 133.445 45.314 134.173 45.314C134.863 45.314 135.47 45.468 135.993 45.776C136.525 46.0747 136.94 46.5133 137.239 47.092C137.547 47.6707 137.701 48.38 137.701 49.22ZM132.143 49.22C132.143 49.78 132.213 50.2653 132.353 50.676C132.493 51.0773 132.712 51.3853 133.011 51.6C133.309 51.8147 133.692 51.922 134.159 51.922C134.625 51.922 135.008 51.8147 135.307 51.6C135.605 51.3853 135.825 51.0773 135.965 50.676C136.105 50.2653 136.175 49.78 136.175 49.22C136.175 48.6413 136.1 48.156 135.951 47.764C135.811 47.372 135.591 47.0733 135.293 46.868C135.003 46.6533 134.621 46.546 134.145 46.546C133.445 46.546 132.936 46.7793 132.619 47.246C132.301 47.7127 132.143 48.3707 132.143 49.22ZM146.162 42.29C146.125 42.766 146.003 43.172 145.798 43.508C145.602 43.8347 145.299 44.0867 144.888 44.264C144.487 44.432 143.959 44.516 143.306 44.516C142.634 44.516 142.097 44.432 141.696 44.264C141.304 44.0867 141.019 43.8347 140.842 43.508C140.665 43.1813 140.557 42.7753 140.52 42.29H141.878C141.925 42.8033 142.055 43.144 142.27 43.312C142.494 43.48 142.849 43.564 143.334 43.564C143.754 43.564 144.09 43.4753 144.342 43.298C144.594 43.1113 144.743 42.7753 144.79 42.29H146.162ZM141.136 49.57C141.136 49.682 141.131 49.8267 141.122 50.004C141.113 50.1813 141.103 50.368 141.094 50.564C141.085 50.7507 141.071 50.928 141.052 51.096C141.043 51.2547 141.033 51.3807 141.024 51.474L144.902 45.454H146.708V53H145.308V48.982C145.308 48.8047 145.313 48.5853 145.322 48.324C145.331 48.0627 145.341 47.8107 145.35 47.568C145.369 47.316 145.383 47.1247 145.392 46.994L141.542 53H139.722V45.454H141.136V49.57ZM158.188 45.454V51.824H159.294V55.646H157.908V53H152.7V55.646H151.328V51.824H151.93C152.332 51.2453 152.668 50.6107 152.938 49.92C153.209 49.2293 153.414 48.506 153.554 47.75C153.704 46.9847 153.792 46.2193 153.82 45.454H158.188ZM155.108 46.602C155.052 47.2087 154.95 47.8293 154.8 48.464C154.66 49.0987 154.478 49.7053 154.254 50.284C154.04 50.8627 153.783 51.376 153.484 51.824H156.732V46.602H155.108ZM167.505 49.22C167.505 49.8453 167.421 50.4007 167.253 50.886C167.085 51.3713 166.847 51.782 166.539 52.118C166.231 52.454 165.858 52.7107 165.419 52.888C164.98 53.056 164.486 53.14 163.935 53.14C163.431 53.14 162.964 53.056 162.535 52.888C162.106 52.7107 161.732 52.454 161.415 52.118C161.107 51.782 160.864 51.3713 160.687 50.886C160.51 50.4007 160.421 49.8407 160.421 49.206C160.421 48.3753 160.561 47.6707 160.841 47.092C161.13 46.5133 161.541 46.0747 162.073 45.776C162.614 45.468 163.249 45.314 163.977 45.314C164.668 45.314 165.274 45.468 165.797 45.776C166.329 46.0747 166.744 46.5133 167.043 47.092C167.351 47.6707 167.505 48.38 167.505 49.22ZM161.947 49.22C161.947 49.78 162.017 50.2653 162.157 50.676C162.297 51.0773 162.516 51.3853 162.815 51.6C163.114 51.8147 163.496 51.922 163.963 51.922C164.43 51.922 164.812 51.8147 165.111 51.6C165.41 51.3853 165.629 51.0773 165.769 50.676C165.909 50.2653 165.979 49.78 165.979 49.22C165.979 48.6413 165.904 48.156 165.755 47.764C165.615 47.372 165.396 47.0733 165.097 46.868C164.808 46.6533 164.425 46.546 163.949 46.546C163.249 46.546 162.74 46.7793 162.423 47.246C162.106 47.7127 161.947 48.3707 161.947 49.22ZM178.038 45.454V53H176.694V48.52C176.694 48.268 176.699 48.016 176.708 47.764C176.727 47.5027 176.746 47.2553 176.764 47.022H176.722L174.37 53H173.18L170.87 47.022H170.814C170.842 47.2553 170.861 47.5027 170.87 47.764C170.88 48.016 170.884 48.282 170.884 48.562V53H169.526V45.454H171.556L173.782 51.236L176.05 45.454H178.038Z" fill="#1A1A1A" fill-opacity="0.53"/>
</g>
<defs>
<filter id="filter0_d_10044_2303" x="-3.6" y="-3.6" width="79.2" height="79.2" filterUnits="userSpaceOnUse" color-interpolation-filters="sRGB">
<feFlood flood-opacity="0" result="BackgroundImageFix"/>
<feColorMatrix in="SourceAlpha" type="matrix" values="0 0 0 0 0 0 0 0 0 0 0 0 0 0 0 0 0 0 127 0" result="hardAlpha"/>
<feOffset/>
<feGaussianBlur stdDeviation="3.8"/>
<feComposite in2="hardAlpha" operator="out"/>
<feColorMatrix type="matrix" values="0 0 0 0 0.533333 0 0 0 0 0.584314 0 0 0 0 0.996078 0 0 0 0.63 0"/>
<feBlend mode="normal" in2="BackgroundImageFix" result="effect1_dropShadow_10044_2303"/>
<feBlend mode="normal" in="SourceGraphic" in2="effect1_dropShadow_10044_2303" result="shape"/>
</filter>
<clipPath id="clip0_10044_2303">
<rect width="252" height="101" fill="white"/>
</clipPath>
</defs>
</svg>
