<svg width="64" height="20" viewBox="0 0 64 20" fill="none" xmlns="http://www.w3.org/2000/svg">
<path d="M21.3265 16.5587C18.3174 18.7247 14.6418 20 10.6632 20C6.68473 20 3.00914 18.7247 0 16.5587L0 8.25909C3.00914 10.4251 6.68473 11.7004 10.6632 11.7004C14.6418 11.7004 18.3174 10.4251 21.3265 8.25909V16.5587Z" fill="#004F68"/>
<path d="M42.6733 8.25909C45.6824 10.4251 49.358 11.7004 53.3366 11.7004C57.3151 11.7004 60.9909 10.4251 64 8.25909V16.5587C60.9909 18.7247 57.3151 20 53.3366 20C49.358 20 45.6824 18.7247 42.6733 16.5587V8.27945C39.6642 10.4252 35.9684 11.7005 32.0101 11.7207C28.0315 11.7207 24.3559 10.4454 21.3468 8.27945V0C24.356 2.16598 28.0315 3.4413 32.0101 3.4413C35.9886 3.4413 39.6642 2.16598 42.6733 0V8.25909Z" fill="#004F68"/>
</svg>
