<svg width="190" height="89" viewBox="0 0 190 89" fill="none" xmlns="http://www.w3.org/2000/svg">
<path d="M74.3213 82.8057C68.9142 86.7044 62.3091 89 55.1602 89C48.0114 88.9999 41.407 86.7044 36 82.8057V67.8662C41.407 71.7649 48.0114 74.0605 55.1602 74.0605C62.3091 74.0605 68.9142 71.765 74.3213 67.8662V82.8057Z" fill="white"/>
<path d="M112.679 67.8662C118.086 71.7649 124.69 74.0605 131.839 74.0605C138.988 74.0605 145.593 71.765 151 67.8662V82.8057C145.593 86.7045 138.988 89 131.839 89C124.69 88.9999 118.086 86.7043 112.679 82.8057V67.9033C107.272 71.7656 100.63 74.0612 93.5176 74.0977C86.3689 74.0975 79.7643 71.8019 74.3574 67.9033V53C79.7644 56.8987 86.3689 59.1942 93.5176 59.1943C100.666 59.1943 107.272 56.8988 112.679 53V67.8662Z" fill="white"/>
<path fill-rule="evenodd" clip-rule="evenodd" d="M56.2666 18.3125C58.982 18.3125 61.4119 18.6006 63.5557 19.1758C65.7472 19.751 67.5575 20.6142 69.082 21.7646C70.6066 22.9152 71.7985 24.3533 72.6084 26.0791C73.4182 27.8047 73.8467 29.7706 73.8467 32.0234C73.8466 34.2763 73.4183 36.2421 72.6084 37.9678C71.7985 39.6936 70.6066 41.1317 69.082 42.2822C67.5575 43.4326 65.6994 44.2959 63.5557 44.8711C61.3643 45.4463 58.9343 45.7334 56.2666 45.7334C53.5512 45.7334 51.1211 45.4463 48.9297 44.8711C46.7383 44.2959 44.88 43.4326 43.3555 42.2822C41.8309 41.1317 40.639 39.6935 39.8291 37.9678C39.0192 36.2421 38.5909 34.2763 38.5908 32.0234C38.5908 29.7706 39.0193 27.8047 39.8291 26.0791C40.639 24.3533 41.8309 22.9152 43.3555 21.7646C44.88 20.6142 46.7382 19.751 48.9297 19.1758C51.1211 18.6006 53.5512 18.3125 56.2666 18.3125ZM56.2666 23.9219C54.8374 23.9219 53.5979 24.0172 52.5498 24.2568C51.5019 24.4965 50.5493 24.7845 49.7871 25.168C49.0248 25.5515 48.3581 26.0313 47.834 26.5586C47.3099 27.0859 46.8806 27.6611 46.5947 28.2363C46.2614 28.8115 46.0706 29.4824 45.9277 30.1055C45.7848 30.7765 45.7373 31.4003 45.7373 32.0234C45.7373 32.6942 45.7849 33.3175 45.9277 33.9883C46.0706 34.6593 46.2613 35.2832 46.5947 35.8584C46.9282 36.4815 47.31 37.0089 47.834 37.5361C48.358 38.0633 49.0249 38.4955 49.7871 38.8789C50.5492 39.2623 51.502 39.5494 52.5498 39.7891C53.5979 40.0287 54.8374 40.125 56.2666 40.125C58.3626 40.125 60.0775 39.8846 61.459 39.4053C62.8405 38.9259 63.8891 38.3031 64.6514 37.5361C65.4136 36.7692 65.9856 35.9059 66.2715 34.9473C66.6049 33.9408 66.748 32.982 66.748 32.0234C66.748 31.0647 66.605 30.0573 66.2715 29.0986C65.9856 28.1399 65.4136 27.2767 64.6514 26.5098C63.8891 25.7429 62.7928 25.12 61.459 24.6406C60.0775 24.1614 58.3625 23.9219 56.2666 23.9219Z" fill="white"/>
<path fill-rule="evenodd" clip-rule="evenodd" d="M18.4854 18.9355C19.2476 18.9355 19.9623 18.9843 20.7246 19.0322C21.4867 19.0802 22.2013 19.2234 22.8682 19.3672C23.5352 19.5589 24.1551 19.7993 24.7744 20.0869C25.346 20.3745 25.8701 20.8058 26.2988 21.2852C26.7276 21.7645 27.0616 22.3875 27.2998 23.0586C27.538 23.7297 27.6807 24.5931 27.6807 25.5039C27.6806 27.1816 27.2513 28.5236 26.4414 29.5303C25.6315 30.5369 24.2978 31.1605 22.5352 31.4961C23.7737 31.592 24.8693 31.7837 25.7744 32.0713C26.6796 32.3589 27.3951 32.7901 27.9668 33.2695C28.5383 33.7967 28.9669 34.4199 29.2051 35.1387C29.3957 36.0016 29.5391 36.8654 29.5391 37.8242C29.539 38.8307 29.3954 39.694 29.1572 40.4609C28.8714 41.2277 28.5378 41.8507 28.0615 42.3779C27.5851 42.9052 27.0136 43.3373 26.3467 43.6729C25.6798 44.0084 24.965 44.2956 24.1553 44.4873C23.3453 44.6791 22.4872 44.8231 21.582 44.9189C20.677 45.0148 19.7242 45.0146 18.7715 45.0146H0V18.9355H18.4854ZM7.00391 39.7891H17.1045C18.0569 39.789 18.8664 39.7413 19.5332 39.6934C20.2002 39.6454 20.7724 39.5013 21.2012 39.3096C21.6298 39.1178 21.9637 38.8307 22.1543 38.4473C22.3449 38.0638 22.4395 37.584 22.4395 37.0088C22.4395 36.4335 22.3449 35.9538 22.1543 35.5703C21.9637 35.2348 21.6298 34.9476 21.2012 34.7559C20.7724 34.5641 20.2002 34.42 19.5332 34.3721C18.8664 34.3242 18.0569 34.2764 17.1045 34.2764H7.00391V39.7891ZM7.00391 29.1465H17.3418C18.0563 29.1465 18.6289 29.0989 19.0576 28.9551C19.4862 28.8113 19.8676 28.6673 20.1533 28.4277C20.4389 28.1882 20.5815 27.9485 20.6768 27.6611C20.772 27.3256 20.8203 26.9897 20.8203 26.7021C20.8203 26.3666 20.772 26.0787 20.6768 25.7432C20.5815 25.4557 20.3913 25.1683 20.1533 24.9766C19.8676 24.737 19.5338 24.5451 19.0576 24.4492C18.5812 24.3054 18.0087 24.2568 17.3418 24.2568H7.00391V29.1465Z" fill="white"/>
<path d="M114.391 45.0146H106.577L97.1445 25.3594L87.7109 45.0146H79.8975L93.0469 18.9355H101.193L114.391 45.0146Z" fill="white"/>
<path d="M148.933 24.6406H130.018V45.0146H123.015V18.9355H148.933V24.6406Z" fill="white"/>
<path fill-rule="evenodd" clip-rule="evenodd" d="M190 45.0146H182.187L179.709 40.0771H165.273L162.844 45.0146H155.03L168.608 18.9355H176.422L190 45.0146ZM167.751 34.9951H177.231L172.515 25.4072L167.751 34.9951Z" fill="white"/>
<path d="M63.4609 0.143555C63.5562 0.143556 63.6988 0.144517 63.7939 0.192383C63.8892 0.192415 63.985 0.239258 64.1279 0.239258C64.2231 0.287095 64.3179 0.288082 64.4131 0.335938L64.6992 0.479492C64.7943 0.527352 64.8898 0.575187 64.9375 0.623047C65.0326 0.670996 65.0806 0.767501 65.1758 0.81543C65.2235 0.911142 65.3186 1.00681 65.3662 1.05469L65.5088 1.3418C65.5564 1.43765 65.5569 1.58186 65.6045 1.67773C65.6045 1.82151 65.6523 1.9656 65.6523 2.10938C65.6523 2.25309 65.6521 2.34941 65.6045 2.49316C65.6044 2.58896 65.5563 2.73236 65.5088 2.82812L65.3662 3.11621C65.3186 3.21189 65.2708 3.25983 65.1758 3.35547C65.1281 3.45125 65.0327 3.49995 64.9375 3.54785L64.6514 3.69141L64.5566 3.73926C64.6993 3.78703 64.7948 3.78713 64.9375 3.83496C65.0803 3.88287 65.2231 3.93154 65.3184 4.02734C65.4136 4.12307 65.5568 4.17084 65.6045 4.2666C65.6996 4.36234 65.7951 4.45797 65.8428 4.55371C65.8904 4.64952 65.9852 4.79377 65.9854 4.88965C66.033 5.03343 66.0811 5.12964 66.0811 5.27344C66.0334 5.46513 66.0332 5.60914 66.0332 5.75293C66.0332 5.89665 66.033 6.04085 65.9854 6.18457C65.9852 6.32819 65.9372 6.47161 65.8896 6.56738C65.842 6.66326 65.7947 6.80749 65.7471 6.90332C65.6994 6.99904 65.6043 7.09471 65.5566 7.19043L65.3184 7.43066C65.2232 7.47867 65.1274 7.5742 65.0322 7.62207C64.9371 7.66995 64.842 7.71872 64.6992 7.7666C64.6041 7.81442 64.4614 7.86214 64.3662 7.8623C64.2709 7.91024 64.1273 7.91007 63.9844 7.95801C63.8416 7.95805 63.6988 8.0058 63.6035 8.00586C63.4607 8.00586 63.3176 8.00585 63.1748 8.05371H58.2197V7.14258H63.3652C63.5558 7.14256 63.7467 7.09473 63.8896 7.09473C64.0324 7.04692 64.1756 7.04691 64.3184 6.99902C64.4135 6.95117 64.5562 6.90332 64.6514 6.85547C64.7465 6.8076 64.7946 6.75968 64.8896 6.66406C64.9373 6.61616 64.9846 6.51963 65.0322 6.42383C65.0799 6.32795 65.0803 6.23162 65.1279 6.13574C65.1281 6.03999 65.1757 5.89652 65.1758 5.80078C65.1758 5.65703 65.1756 5.51283 65.1279 5.41699C65.1279 5.3212 65.0798 5.22568 65.0322 5.12988C64.9847 5.03416 64.9378 4.93766 64.8428 4.88965C64.7952 4.79395 64.6996 4.74609 64.6045 4.69824C64.5092 4.65031 64.4134 4.60164 64.2705 4.55371C64.1277 4.50582 63.9846 4.45806 63.8418 4.45801C63.6989 4.41012 63.5079 4.41016 63.3174 4.41016H59.6016V3.54785H62.5078C62.746 3.54785 62.9843 3.54695 63.1748 3.49902C63.3651 3.49899 63.5554 3.4512 63.6982 3.40332C63.8411 3.35539 63.9848 3.30769 64.0801 3.25977C64.1753 3.21187 64.271 3.16411 64.3662 3.11621C64.4139 3.06832 64.509 3.01961 64.5566 2.92383C64.6041 2.87579 64.6513 2.78026 64.6514 2.73242C64.6514 2.63678 64.6991 2.58875 64.6992 2.49316V1.96484C64.6992 1.91712 64.6988 1.86901 64.6514 1.82129C64.6511 1.77348 64.6045 1.72554 64.6045 1.67773C64.6044 1.62988 64.5563 1.58203 64.5088 1.53418C64.4611 1.48624 64.4607 1.43848 64.4131 1.43848C64.3654 1.39054 64.3182 1.38974 64.2705 1.3418C64.2228 1.2941 64.1277 1.29387 64.0801 1.24609C63.9849 1.19826 63.8891 1.19823 63.7939 1.15039C63.6988 1.15034 63.6035 1.10264 63.4609 1.10254C63.318 1.10254 63.222 1.05471 63.0791 1.05469H58.3623V0.143555H63.4609Z" fill="white"/>
<path fill-rule="evenodd" clip-rule="evenodd" d="M40.3066 0.0478516C40.9256 0.0478835 41.4018 0.0965787 41.8779 0.192383C42.1161 0.240313 42.3073 0.287929 42.4502 0.383789C42.6406 0.4796 42.7839 0.575087 42.9268 0.670898C43.0696 0.76676 43.2124 0.911007 43.3076 1.00684C43.4029 1.15058 43.4983 1.29473 43.5459 1.43848C43.5935 1.58226 43.6409 1.77426 43.6885 1.91797C43.736 2.15745 43.7363 2.34939 43.7363 2.54102C43.7363 2.73265 43.7361 2.92457 43.6885 3.11621C43.6409 3.30784 43.5935 3.45195 43.5459 3.5957C43.4982 3.73944 43.4028 3.88361 43.3076 4.02734C43.2124 4.17089 43.0695 4.2666 42.9268 4.41016C42.7839 4.506 42.6407 4.6024 42.4502 4.69824C42.2597 4.79408 42.0684 4.84172 41.8779 4.88965C41.64 4.93753 41.402 4.98529 41.1641 4.98535C40.926 5.03326 40.6399 5.0332 40.3066 5.0332H37.0186V8.00586H36.0654V0.0478516H40.3066ZM36.9717 4.1709H40.7822C40.8775 4.1709 41.021 4.16994 41.1162 4.12207C41.2114 4.12192 41.3541 4.07528 41.4492 4.0752C41.5445 4.0752 41.6401 4.02645 41.7354 3.97852C41.8306 3.93067 41.9263 3.93072 42.0215 3.88281C42.1165 3.83493 42.1646 3.78714 42.2598 3.73926C42.3074 3.69129 42.4026 3.59576 42.4502 3.54785C42.4978 3.45201 42.5452 3.40342 42.5928 3.30762C42.6403 3.2119 42.6884 3.11612 42.6885 2.97266C42.7361 2.82896 42.7354 2.68471 42.7354 2.54102C42.7354 2.34942 42.736 2.20523 42.6885 2.06152C42.6408 1.91772 42.6402 1.82146 42.5449 1.72559C42.4973 1.62987 42.4021 1.53419 42.3545 1.43848C42.2592 1.3426 42.1636 1.29403 42.0684 1.24609C41.9731 1.19824 41.8302 1.15039 41.6875 1.10254C41.5447 1.0547 41.3544 1.05464 41.1641 1.00684C40.9735 1.00684 40.7821 0.95901 40.5439 0.958984H36.9717V4.1709Z" fill="white"/>
<path d="M54.123 0.958984H48.5V3.35547H53.8369V4.2666H48.5V7.09473H54.1699V8.00586H47.5V0.0478516H54.123V0.958984Z" fill="white"/>
<path d="M70.8447 6.61523L77.2773 0.0478516H78.2295V8.00586H77.2773V1.39062L70.8447 8.00586H69.8926V0.0478516H70.8447V6.61523Z" fill="white"/>
<path fill-rule="evenodd" clip-rule="evenodd" d="M90.2832 7.09473H91.1406V8.00586H81.2314V7.09473H82.0889L85.5674 0.0478516H86.7578L90.2832 7.09473ZM83.1367 7.09473H89.2354L86.1865 0.958984L83.1367 7.09473Z" fill="white"/>
<path d="M100.765 0.958984H95.1436V3.35547H100.479V4.2666H95.1436V7.09473H100.86V8.00586H94.1426V0.0478516H100.765V0.958984Z" fill="white"/>
<path d="M105.862 3.35547H112.39V0.0478516H113.343V8.00586H112.39V4.2666H105.862V8.00586H104.91V0.0478516H105.862V3.35547Z" fill="white"/>
<path d="M118.679 7.09473H124.682V0.0478516H125.635V7.09473H127.35V8.00586H117.726V0.0478516H118.679V7.09473Z" fill="white"/>
<path d="M131.066 6.61523L137.498 0.0478516H138.451V8.00586H137.498V1.39062L131.066 8.00586H130.113V0.0478516H131.066V6.61523Z" fill="white"/>
<path fill-rule="evenodd" clip-rule="evenodd" d="M150.933 7.95801H149.979V4.69824C148.836 4.69826 147.597 4.74617 146.406 4.69824L143.93 8.00586H142.786L145.406 4.55371C145.168 4.50576 144.93 4.4103 144.691 4.31445C144.453 4.1707 144.215 4.02663 144.072 3.83496C143.929 3.64332 143.787 3.45146 143.691 3.16406C143.596 2.92456 143.596 2.637 143.596 2.34961C143.596 2.15785 143.596 1.96511 143.644 1.82129C143.691 1.62971 143.739 1.48552 143.786 1.3418C143.834 1.19821 143.929 1.05472 144.024 0.911133C144.12 0.767317 144.263 0.671073 144.406 0.575195C144.549 0.479382 144.692 0.383844 144.883 0.335938C145.073 0.287979 145.264 0.191474 145.454 0.143555C145.883 0.0477243 146.407 4.87543e-06 146.979 0H150.933V7.95801ZM146.883 0.958984C146.645 0.959052 146.407 1.00676 146.217 1.00684C146.026 1.00684 145.835 1.0546 145.645 1.10254C145.502 1.15045 145.359 1.19819 145.216 1.24609C145.121 1.29402 144.977 1.34262 144.93 1.43848C144.835 1.48633 144.787 1.53425 144.739 1.62988C144.644 1.8216 144.597 2.06209 144.597 2.34961C144.597 2.49321 144.597 2.63667 144.645 2.78027C144.692 2.92405 144.692 3.02036 144.739 3.11621C144.787 3.21188 144.835 3.25982 144.93 3.35547C145.025 3.40339 145.121 3.4999 145.216 3.54785C145.359 3.59576 145.502 3.6435 145.645 3.69141C145.787 3.73934 145.979 3.73917 146.217 3.78711C146.407 3.78719 146.645 3.83492 146.931 3.83496H149.979V0.958984H146.883Z" fill="white"/>
</svg>
