<svg width="48" height="48" viewBox="0 0 48 48" fill="none" xmlns="http://www.w3.org/2000/svg">
<path d="M3.59961 34.9162C3.59961 34.9162 4.44961 33.5614 6.99961 33.5614C9.54961 33.5614 11.2496 36.2711 13.7996 36.2711C16.5125 36.2711 17.8868 33.5614 20.5996 33.5614C23.1496 33.5614 24.8496 36.2711 27.3996 36.2711C30.2858 36.2711 31.3134 33.5614 34.1996 33.5614C36.7496 33.5614 38.4496 36.2711 40.9996 36.2711C43.5496 36.2711 44.3996 34.9162 44.3996 34.9162M3.59961 43.0452C3.59961 43.0452 4.44961 41.6904 6.99961 41.6904C9.54961 41.6904 11.2496 44.4001 13.7996 44.4001C16.5125 44.4001 17.8868 41.6904 20.5996 41.6904C23.1496 41.6904 24.8496 44.4001 27.3996 44.4001C30.2858 44.4001 31.3134 41.6904 34.1996 41.6904C36.7496 41.6904 38.4496 44.4001 40.9996 44.4001C43.5496 44.4001 44.3996 43.0452 44.3996 43.0452M13.1996 29.4969V7.5869C13.1996 7.5869 13.1996 3.52239 17.2798 3.52239C21.3596 3.52239 21.3596 7.5869 21.3596 7.5869V10.2966M30.7996 29.4969V7.5869C30.7996 7.5869 30.7996 3.52239 34.8798 3.52239C38.9596 3.52239 38.9596 7.5869 38.9596 7.5869V10.2966M13.1996 17.0708H30.7996M13.1996 25.1998H30.7996" stroke="white" stroke-width="4" stroke-linecap="round"/>
</svg>
